<svg width="75" height="76" fill="none" xmlns="http://www.w3.org/2000/svg"><path d="M75 37.647c0-4.944-.97-9.84-2.855-14.407a37.657 37.657 0 00-8.129-12.213 37.49 37.49 0 00-12.165-8.161 37.373 37.373 0 00-28.702 0 37.49 37.49 0 00-12.166 8.16A37.656 37.656 0 002.855 23.24 37.775 37.775 0 000 37.647h2.806c0-4.574.897-9.103 2.64-13.329a34.84 34.84 0 017.522-11.3 34.686 34.686 0 0111.255-7.55 34.576 34.576 0 0126.554 0 34.686 34.686 0 0111.255 7.55 34.84 34.84 0 017.521 11.3 34.949 34.949 0 012.641 13.33H75z" fill="#fff"/><path d="M75 37.647c0 4.944-.97 9.84-2.855 14.407a37.658 37.658 0 01-8.129 12.213 37.491 37.491 0 01-12.165 8.161 37.373 37.373 0 01-28.702 0 37.491 37.491 0 01-12.166-8.16 37.657 37.657 0 01-8.128-12.214A37.775 37.775 0 010 37.647h2.806c0 4.574.897 9.103 2.64 13.329a34.84 34.84 0 007.522 11.3 34.686 34.686 0 0011.255 7.55 34.576 34.576 0 0026.554 0 34.686 34.686 0 0011.255-7.55 34.84 34.84 0 007.521-11.3 34.95 34.95 0 002.641-13.329H75zM50.294 18.823a8.822 8.822 0 01-12.2 8.152 8.823 8.823 0 01-5.447-8.152h2.385a6.438 6.438 0 1012.877 0h2.385z" fill="#fff"/><path d="M52.647 18.824a8.824 8.824 0 00-17.647 0h2.385a6.438 6.438 0 1112.877 0h2.385zm-27.353-.001a8.823 8.823 0 11-17.647 0h2.385a6.44 6.44 0 0010.991 4.553 6.438 6.438 0 001.886-4.553h2.385z" fill="#fff"/><path d="M25.294 18.824a8.824 8.824 0 10-17.647 0h2.385a6.44 6.44 0 0110.991-4.553 6.438 6.438 0 011.886 4.553h2.385zm1.765 30.294L16.644 67.36l-3.114-1.037 11.764-20.736 1.765 3.53zM40.1 26.912L29.57 44.975l-3.112-1.043 10.841-18.638 2.802 1.618zm3.047 2.95L34.85 44.124l-3.673-.006 9.118-15.883 2.853 1.627z" fill="#fff"/><path d="M15.99 26.912l11.974 20.775 1.9-3.216L18.79 25.294l-2.802 1.618zm12.852 22.261L40.459 68.92l5.926 4.168-15.797-27.5-1.746 3.585zm5.094-3.584l10.803 18.97 5.267 3.027-12.62-21.998h-3.45zm6.358-17.354h8.824l-1.765 3.236h-7.059v-3.236zm-2.941 5.589h8.823l-1.764 3.235h-7.06v-3.235zM20.588 59.118h12.206l-2.088-3.236H20.588v3.236z" fill="#fff"/><path d="M46.288 67.647h9.888l5.265-3.235h-16.77l1.617 3.235zM33.824 40.882h8.823l-1.765 3.236h-7.058v-3.236zM53.48 28.235l-8.297 15.889-3.673-.006 8.784-15.883h3.186zm10.25 0l-8.298 15.889-3.672-.006 8.784-15.883h3.186z" fill="#fff"/><path d="M44.157 40.882h8.823l-1.764 3.236h-7.06v-3.236z" fill="#fff"/></svg>