<svg width="30" height="30" fill="none" xmlns="http://www.w3.org/2000/svg"><path fill-rule="evenodd" clip-rule="evenodd" d="M15 28.75C7.406 28.75 1.25 22.594 1.25 15S7.406 1.25 15 1.25 28.75 7.406 28.75 15 22.594 28.75 15 28.75zm11.085-11.818c-2.417-.561-4.677-.706-6.787-.43 1.052 2.594 1.817 5.132 2.295 7.614a11.25 11.25 0 004.492-7.184zm-6.8 8.473c-.449-2.7-1.271-5.488-2.468-8.364-3.359 1.04-6.299 3.28-8.854 6.737A11.203 11.203 0 0015 26.25c1.517 0 2.964-.3 4.285-.845zM6.182 21.986c2.758-3.626 5.97-6.044 9.609-7.241-.235-.491-.48-.986-.736-1.482-.646.173-1.316.322-2.008.448-2.789.51-5.206.61-9.126.553l-.147-.002a11.202 11.202 0 002.408 7.724zm-1.96-10.218A11.28 11.28 0 019.938 4.95a73.13 73.13 0 013.883 6.046c-.397.094-.806.18-1.225.256-2.522.461-4.766.562-8.376.516zm8.147-7.709a73.877 73.877 0 013.901 6.186c2.396-.926 4.256-2.303 5.523-4.213A11.2 11.2 0 0015 3.75c-.906 0-1.787.107-2.63.31zm11.257 3.72a11.2 11.2 0 012.608 6.625c-2.827-.61-5.486-.7-7.969-.273a55.734 55.734 0 00-.81-1.664c2.577-1.043 4.663-2.573 6.171-4.689z" fill="#fff"/></svg>