<svg width="29" height="26" fill="none" xmlns="http://www.w3.org/2000/svg"><path fill-rule="evenodd" clip-rule="evenodd" d="M26.16 4.011l1.886.22-.848 1.7-1.242 2.486c-.05.175-.135.33-.263.53-.053.083-.236.35-.244.362-.048.072-.084.13-.11.175v3.185c0 8.149-7.886 13.328-15.334 13.328-1.524 0-2.682-.073-4.008-.363-2.182-.476-3.806-1.422-4.549-3.077l-.765-1.703 1.86-.17c1.681-.155 3.14-.476 4.26-.905-3.075-.494-4.798-1.845-4.798-4.38v-1.334h1.333c.293 0 .557-.024.793-.067C1.824 12.618.668 10.405.668 7.335v-.27c-.01-1.548.074-2.374.497-3.43A6.11 6.11 0 012.357 1.76L3.363.667l.979 1.118c3.223 3.684 6.41 5.919 9.664 6.19.014-3.4 2.583-5.973 6-5.973 1.593 0 3.038.605 4.173 1.695a23.36 23.36 0 001.98.314zm-2.948 2.205l-.41-.093-.282-.31c-.682-.748-1.539-1.144-2.514-1.144-1.95 0-3.334 1.39-3.334 3.333 0 .318-.008.517-.048.78-.157 1.046-.745 1.887-1.952 1.887-3.997 0-7.604-2.142-11.12-5.8-.181.552-.224 1.118-.218 2.18l.001.286c0 2.731 1.106 4.225 3.726 5.057l.93.296v.975c0 1.183-1.121 2.296-2.76 2.794.75.57 2.288.878 4.774.878h1.333v1.334c0 1.91-2.194 3.406-5.51 4.187 1.081.331 2.52.474 4.177.474 6.152 0 12.668-4.278 12.668-10.661V9.335c0-.391.113-.731.302-1.085.074-.138.155-.27.255-.42l.145-.213.105-.211.514-1.028c-.266-.05-.527-.104-.782-.162z" fill="#fff"/></svg>