<svg width="32" height="32" viewBox="0 0 32 32" fill="none" xmlns="http://www.w3.org/2000/svg">
<path d="M16 0C9.6097 0 4.41083 5.19887 4.41083 11.5891C4.41083 19.5196 14.782 31.1621 15.2236 31.6538C15.6383 32.1157 16.3625 32.1149 16.7765 31.6538C17.218 31.1621 27.5892 19.5196 27.5892 11.5891C27.5891 5.19887 22.3903 0 16 0ZM16 17.4199C12.7849 17.4199 10.1693 14.8042 10.1693 11.5891C10.1693 8.374 12.785 5.75838 16 5.75838C19.2151 5.75838 21.8307 8.37406 21.8307 11.5892C21.8307 14.8043 19.2151 17.4199 16 17.4199Z" fill="#AC9374"/>
</svg>
