<svg width="32" height="32" fill="none" xmlns="http://www.w3.org/2000/svg"><g clip-path="url(#clip0)"><path d="M31.129 23.485l-4.466-4.466c-1.595-1.595-4.306-.957-4.944 1.117-.478 1.435-2.073 2.232-3.509 1.913-3.19-.797-7.496-4.944-8.293-8.293-.478-1.436.478-3.03 1.914-3.509 2.073-.638 2.711-3.35 1.116-4.944L8.482.837c-1.276-1.116-3.19-1.116-4.307 0l-3.03 3.03c-3.03 3.19.32 11.643 7.815 19.14 7.496 7.495 15.949 11.004 19.139 7.814l3.03-3.03c1.116-1.276 1.116-3.19 0-4.306z" fill="#AC9374"/></g><defs><clipPath id="clip0"><path fill="#fff" d="M0 0h32v32H0z"/></clipPath></defs></svg>