<svg width="64" height="64" fill="none" xmlns="http://www.w3.org/2000/svg"><path d="M2.832 7.445A5.724 5.724 0 007.605 10h1.42C9.014 9.84 9 9.68 9 9.518a2.518 2.518 0 014.719-1.223c.293.528.613 1.041.916 1.564l5.488-1.22a26.84 26.84 0 019.906-.327l.011.002A145.063 145.063 0 0052.089 10H62v3h-1v4a2 2 0 01-2 2h-4.658C45.476 19 36.639 17.994 28 16v1l-1.632-.544A2 2 0 0125 14.558V11c-2.66 0-5.314.263-7.922.784L16 12l-.098.021a96.747 96.747 0 007.701 10.783 130.748 130.748 0 0018.663 18.507l9.049 7.325A4.544 4.544 0 0153 52.168v.288a4.543 4.543 0 01-7.185 3.698l-4.59-3.279a89.89 89.89 0 01-29.901-36.646l-1.722-3.875c-.051-.116-.091-.236-.136-.354H7.605a7.724 7.724 0 01-6.438-3.445l1.665-1.11zM48 54c1.103 0 2-.897 2-2s-.897-2-2-2-2 .897-2 2 .897 2 2 2zM12 12a1 1 0 100-2 1 1 0 000 2z" fill="#AC9374"/></svg>